<?xml version="1.0" encoding="UTF-8" standalone="no" ?>
<!DOCTYPE svg PUBLIC "-//W3C//DTD SVG 1.1//EN" "http://www.w3.org/Graphics/SVG/1.1/DTD/svg11.dtd">
<svg xmlns="http://www.w3.org/2000/svg" xmlns:xlink="http://www.w3.org/1999/xlink" version="1.1" width="50" height="50" viewBox="0 0 50 50" xml:space="preserve">
<desc>Created with Fabric.js 4.6.0</desc>
<defs>
</defs>
<g transform="matrix(1 0 0 1 25 25)" id="Ht20HIM-Vr-XYp4wyt4cR"  >
<path style="stroke: rgb(150,81,173); stroke-width: 0; stroke-dasharray: none; stroke-linecap: butt; stroke-dashoffset: 0; stroke-linejoin: miter; stroke-miterlimit: 4; fill: rgb(38,39,41); fill-rule: nonzero; opacity: 1;" vector-effect="non-scaling-stroke"  transform=" translate(-25, -25)" d="M 0 0 L 50 0 L 50 50 L 0 50 z" stroke-linecap="round" />
</g>
<g transform="matrix(1 0 0 1 21.6 8.65)" id="ILgDlBS44g6Jzrlxpj3eg"  >
<path style="stroke: rgb(0,0,0); stroke-width: 1; stroke-dasharray: none; stroke-linecap: butt; stroke-dashoffset: 0; stroke-linejoin: miter; stroke-miterlimit: 4; fill: rgb(255,255,255); fill-opacity: 0; fill-rule: nonzero; opacity: 1;" vector-effect="non-scaling-stroke"  transform=" translate(0, 0)" d="M 0 0" stroke-linecap="round" />
</g>
<g transform="matrix(1.31 0 0 0.22 20.38 22.98)" id="8jn7pfSr7PtSIUgCNNTtc"  >
<path style="stroke: rgb(65,25,165); stroke-width: 0; stroke-dasharray: none; stroke-linecap: butt; stroke-dashoffset: 0; stroke-linejoin: miter; stroke-miterlimit: 4; fill: rgb(231,232,237); fill-rule: nonzero; opacity: 1;" vector-effect="non-scaling-stroke"  transform=" translate(0, 0)" d="M -4.3719 -4.3719 L 4.3719 -4.3719 L 4.3719 4.3719 L -4.3719 4.3719 z" stroke-linecap="round" />
</g>
<g transform="matrix(1.6 0 0 0.22 17.14 18.22)" id="ZwXzaw8LQUmm5Fdux8XpL"  >
<path style="stroke: rgb(65,25,165); stroke-width: 0; stroke-dasharray: none; stroke-linecap: butt; stroke-dashoffset: 0; stroke-linejoin: miter; stroke-miterlimit: 4; fill: rgb(231,232,237); fill-rule: nonzero; opacity: 1;" vector-effect="non-scaling-stroke"  transform=" translate(0, 0)" d="M -4.3719 -4.3719 L 4.3719 -4.3719 L 4.3719 4.3719 L -4.3719 4.3719 z" stroke-linecap="round" />
</g>
<g transform="matrix(0.32 0.74 -0.2 0.09 16.08 15.03)" id="ebZbsMgnaokaPSL1cxWZi"  >
<path style="stroke: rgb(65,25,165); stroke-width: 0; stroke-dasharray: none; stroke-linecap: butt; stroke-dashoffset: 0; stroke-linejoin: miter; stroke-miterlimit: 4; fill: rgb(231,232,237); fill-rule: nonzero; opacity: 1;" vector-effect="non-scaling-stroke"  transform=" translate(0, 0)" d="M -4.3719 -4.3719 L 4.3719 -4.3719 L 4.3719 4.3719 L -4.3719 4.3719 z" stroke-linecap="round" />
</g>
<g transform="matrix(1.24 3.81 -0.21 0.07 26.65 24.56)" id="I6kmaN5fYbkccbRFuhBy1"  >
<path style="stroke: rgb(65,25,165); stroke-width: 0; stroke-dasharray: none; stroke-linecap: butt; stroke-dashoffset: 0; stroke-linejoin: miter; stroke-miterlimit: 4; fill: rgb(231,232,237); fill-rule: nonzero; opacity: 1;" vector-effect="non-scaling-stroke"  transform=" translate(0, 0)" d="M -4.3719 -4.3719 L 4.3719 -4.3719 L 4.3719 4.3719 L -4.3719 4.3719 z" stroke-linecap="round" />
</g>
<g transform="matrix(0.17 0.49 -0.21 0.07 11.5 35.47)" id="QfldVRolndsH00G4j8EHa"  >
<path style="stroke: rgb(65,25,165); stroke-width: 0; stroke-dasharray: none; stroke-linecap: butt; stroke-dashoffset: 0; stroke-linejoin: miter; stroke-miterlimit: 4; fill: rgb(231,232,237); fill-rule: nonzero; opacity: 1;" vector-effect="non-scaling-stroke"  transform=" translate(0, 0)" d="M -4.3719 -4.3719 L 4.3719 -4.3719 L 4.3719 4.3719 L -4.3719 4.3719 z" stroke-linecap="round" />
</g>
<g transform="matrix(-2.73 0.94 -0.07 -0.21 22.1 30.3)" id="DSVoDtlih-Q95GOX173SZ"  >
<path style="stroke: rgb(65,25,165); stroke-width: 0; stroke-dasharray: none; stroke-linecap: butt; stroke-dashoffset: 0; stroke-linejoin: miter; stroke-miterlimit: 4; fill: rgb(231,232,237); fill-rule: nonzero; opacity: 1;" vector-effect="non-scaling-stroke"  transform=" translate(0, 0)" d="M -4.3719 -4.3719 L 4.3719 -4.3719 L 4.3719 4.3719 L -4.3719 4.3719 z" stroke-linecap="round" />
</g>
<g transform="matrix(1.75 0.34 -0.04 0.22 20.35 39.45)" id="iXHsDHcYJ_zwhax5tACHl"  >
<path style="stroke: rgb(65,25,165); stroke-width: 0; stroke-dasharray: none; stroke-linecap: butt; stroke-dashoffset: 0; stroke-linejoin: miter; stroke-miterlimit: 4; fill: rgb(231,232,237); fill-rule: nonzero; opacity: 1;" vector-effect="non-scaling-stroke"  transform=" translate(0, 0)" d="M -4.3719 -4.3719 L 4.3719 -4.3719 L 4.3719 4.3719 L -4.3719 4.3719 z" stroke-linecap="round" />
</g>
<g transform="matrix(-0.92 1.53 -0.19 -0.11 31.16 33.27)" id="e5HOdgLO0wBCwpJ7BFNua"  >
<path style="stroke: rgb(65,25,165); stroke-width: 0; stroke-dasharray: none; stroke-linecap: butt; stroke-dashoffset: 0; stroke-linejoin: miter; stroke-miterlimit: 4; fill: rgb(231,232,237); fill-rule: nonzero; opacity: 1;" vector-effect="non-scaling-stroke"  transform=" translate(0, 0)" d="M -4.3719 -4.3719 L 4.3719 -4.3719 L 4.3719 4.3719 L -4.3719 4.3719 z" stroke-linecap="round" />
</g>
<g transform="matrix(0.02 0.05 -0.06 0.02 36.42 26.48)" id="LLarUJcOn-FjdFYP5WamG"  >
<path style="stroke: none; stroke-width: 1; stroke-dasharray: none; stroke-linecap: butt; stroke-dashoffset: 0; stroke-linejoin: miter; stroke-miterlimit: 4; fill: rgb(231,232,237); fill-rule: nonzero; opacity: 1;" vector-effect="non-scaling-stroke"  transform=" translate(-40, -40)" d="M 0 0 L 80 80 L 0 80 L 0 0 z" stroke-linecap="round" />
</g>
<g transform="matrix(0.04 -0.01 0.01 0.04 12.56 36.69)" id="5h-2c7f6OOUM5YXTvCyLO"  >
<path style="stroke: none; stroke-width: 1; stroke-dasharray: none; stroke-linecap: butt; stroke-dashoffset: 0; stroke-linejoin: miter; stroke-miterlimit: 4; fill: rgb(231,232,237); fill-rule: nonzero; opacity: 1;" vector-effect="non-scaling-stroke"  transform=" translate(-40, -40)" d="M 0 0 L 80 80 L 0 80 L 0 0 z" stroke-linecap="round" />
</g>
<g transform="matrix(-0.22 0.35 -0.19 -0.12 27.4 39.43)" id="SLTBTlxJqbfY3r1tFh-Dv"  >
<path style="stroke: rgb(65,25,165); stroke-width: 0; stroke-dasharray: none; stroke-linecap: butt; stroke-dashoffset: 0; stroke-linejoin: miter; stroke-miterlimit: 4; fill: rgb(231,232,237); fill-rule: nonzero; opacity: 1;" vector-effect="non-scaling-stroke"  transform=" translate(0, 0)" d="M -4.3719 -4.3719 L 4.3719 -4.3719 L 4.3719 4.3719 L -4.3719 4.3719 z" stroke-linecap="round" />
</g>
<g transform="matrix(0.55 0 0 0.22 30.17 40.92)" id="hWvzgkcLCtdMhui3WblAY"  >
<path style="stroke: rgb(65,25,165); stroke-width: 0; stroke-dasharray: none; stroke-linecap: butt; stroke-dashoffset: 0; stroke-linejoin: miter; stroke-miterlimit: 4; fill: rgb(231,232,237); fill-rule: nonzero; opacity: 1;" vector-effect="non-scaling-stroke"  transform=" translate(0, 0)" d="M -4.3719 -4.3719 L 4.3719 -4.3719 L 4.3719 4.3719 L -4.3719 4.3719 z" stroke-linecap="round" />
</g>
<g transform="matrix(0.04 0.01 -0.01 0.03 13.46 37.74)" id="haRNFjKkR_OBTOMnkrEWe"  >
<path style="stroke: none; stroke-width: 1; stroke-dasharray: none; stroke-linecap: butt; stroke-dashoffset: 0; stroke-linejoin: miter; stroke-miterlimit: 4; fill: rgb(231,232,237); fill-rule: nonzero; opacity: 1;" vector-effect="non-scaling-stroke"  transform=" translate(-40, -40)" d="M 0 0 L 80 80 L 0 80 L 0 0 z" stroke-linecap="round" />
</g>
<g transform="matrix(0.25 0 0 0.98 32.05 37.97)" id="1Rren5BhzvbKJnvsNufPK"  >
<path style="stroke: none; stroke-width: 1; stroke-dasharray: none; stroke-linecap: butt; stroke-dashoffset: 0; stroke-linejoin: miter; stroke-miterlimit: 4; fill: rgb(231,232,237); fill-rule: nonzero; opacity: 1;" vector-effect="non-scaling-stroke"  transform=" translate(-5, -4)" d="M 0 0 L 10 8 L 0 8 z" stroke-linecap="round" />
</g>
</svg>